<svg width="25" height="24" viewBox="0 0 25 24" fill="none" xmlns="http://www.w3.org/2000/svg">
<path d="M15.998 0C14.7185 0.0884995 13.223 0.907495 12.3515 1.97399C11.5565 2.94148 10.9025 4.37847 11.1575 5.77497C12.5555 5.81847 14 4.97997 14.837 3.89548C15.62 2.88598 16.2125 1.45799 15.998 0Z" fill="#161C24"/>
<path d="M21.0553 8.05167C19.8268 6.51118 18.1003 5.61719 16.4698 5.61719C14.3174 5.61719 13.4069 6.64768 11.9114 6.64768C10.3694 6.64768 9.19789 5.62019 7.3364 5.62019C5.50791 5.62019 3.56092 6.73768 2.32643 8.64867C0.590942 11.3397 0.88794 16.3991 3.70042 20.7086C4.70692 22.2506 6.05091 23.9846 7.8089 23.9996C9.37339 24.0146 9.81439 22.9961 11.9339 22.9856C14.0534 22.9736 14.4554 24.0131 16.0169 23.9966C17.7763 23.9831 19.1938 22.0616 20.2003 20.5196C20.9218 19.4141 21.1903 18.8576 21.7498 17.6096C17.6803 16.0601 17.0278 10.2732 21.0553 8.05167Z" fill="#161C24"/>
</svg>
