<svg width="41" height="40" viewBox="0 0 41 40" fill="none" xmlns="http://www.w3.org/2000/svg">
<g clip-path="url(#clip0_17114_2678)">
<path d="M20.5 39.4141C31.2221 39.4141 39.9141 30.7221 39.9141 20C39.9141 9.27791 31.2221 0.585938 20.5 0.585938C9.77791 0.585938 1.08594 9.27791 1.08594 20C1.08594 30.7221 9.77791 39.4141 20.5 39.4141Z" fill="#EAB14D"/>
<path d="M20.5018 0.585938C20.1552 0.585938 19.8109 0.595391 19.4688 0.613359C29.7106 1.15039 37.8498 9.62445 37.8498 20C37.8498 30.3755 29.7106 38.8497 19.4688 39.3866C19.8109 39.4046 20.1552 39.4141 20.5019 39.4141C31.224 39.4141 39.9159 30.7221 39.9159 20C39.9159 9.27789 31.2239 0.585938 20.5018 0.585938Z" fill="#E49542"/>
<path d="M20.5034 35.1288C28.8585 35.1288 35.6317 28.3556 35.6317 20.0004C35.6317 11.6453 28.8585 4.87207 20.5034 4.87207C12.1482 4.87207 5.375 11.6453 5.375 20.0004C5.375 28.3556 12.1482 35.1288 20.5034 35.1288Z" fill="#F4FBFF"/>
<path d="M20.5019 4.87207C20.0829 4.87207 19.6681 4.88988 19.2578 4.92332C27.0309 5.55613 33.1421 12.0643 33.1421 20.0004C33.1421 27.9366 27.0309 34.4447 19.2578 35.0775C19.6682 35.111 20.083 35.1288 20.5019 35.1288C28.857 35.1288 35.6302 28.3556 35.6302 20.0004C35.6302 11.6453 28.857 4.87207 20.5019 4.87207Z" fill="#DAF1F4"/>
<path d="M20.5014 21.5643C21.3651 21.5643 22.0653 20.8642 22.0653 20.0004C22.0653 19.1367 21.3651 18.4365 20.5014 18.4365C19.6377 18.4365 18.9375 19.1367 18.9375 20.0004C18.9375 20.8642 19.6377 21.5643 20.5014 21.5643Z" fill="#365E7D"/>
<path d="M20.4963 9.52797C20.5732 9.52797 20.6494 9.51281 20.7205 9.48337C20.7916 9.45392 20.8562 9.41076 20.9106 9.35635C20.965 9.30194 21.0081 9.23735 21.0376 9.16626C21.067 9.09517 21.0822 9.01898 21.0822 8.94203V8.08203C21.0822 7.92663 21.0205 7.7776 20.9106 7.66771C20.8007 7.55783 20.6517 7.49609 20.4963 7.49609C20.3408 7.49609 20.1918 7.55783 20.0819 7.66771C19.972 7.7776 19.9103 7.92663 19.9103 8.08203V8.94203C19.9103 9.01898 19.9255 9.09517 19.9549 9.16626C19.9844 9.23735 20.0275 9.30194 20.0819 9.35635C20.1363 9.41076 20.2009 9.45392 20.272 9.48337C20.3431 9.51281 20.4193 9.52797 20.4963 9.52797ZM29.3062 11.1716C29.2518 11.1172 29.1872 11.074 29.1161 11.0446C29.045 11.0151 28.9688 11 28.8919 11C28.8149 11 28.7387 11.0151 28.6676 11.0446C28.5966 11.074 28.532 11.1172 28.4776 11.1716L27.8695 11.7797C27.7875 11.8616 27.7317 11.966 27.7091 12.0797C27.6864 12.1934 27.698 12.3112 27.7424 12.4183C27.7867 12.5253 27.8618 12.6169 27.9582 12.6813C28.0546 12.7456 28.1679 12.78 28.2837 12.78C28.3607 12.7801 28.4369 12.765 28.508 12.7356C28.5791 12.7061 28.6437 12.6629 28.698 12.6084L29.3062 12.0003C29.416 11.8904 29.4777 11.7414 29.4777 11.586C29.4777 11.4306 29.416 11.2815 29.3062 11.1716ZM31.4906 19.4142C31.167 19.4142 30.9047 19.6766 30.9047 20.0002C30.9047 20.3238 31.167 20.5861 31.4906 20.5861H32.3506C32.6743 20.5861 32.9366 20.3238 32.9366 20.0002C32.9366 19.6765 32.6743 19.4142 32.3506 19.4142H31.4906ZM28.6529 27.3732C28.5985 27.3188 28.5339 27.2756 28.4628 27.2462C28.3917 27.2167 28.3155 27.2016 28.2386 27.2016C28.1616 27.2016 28.0854 27.2167 28.0143 27.2462C27.9432 27.2756 27.8786 27.3188 27.8242 27.3732C27.7698 27.4276 27.7266 27.4922 27.6972 27.5633C27.6678 27.6344 27.6526 27.7106 27.6526 27.7875C27.6526 27.8645 27.6678 27.9407 27.6972 28.0118C27.7266 28.0829 27.7698 28.1475 27.8242 28.2019L28.4323 28.8099C28.5467 28.9243 28.6967 28.9815 28.8466 28.9815C28.9966 28.9815 29.1466 28.9243 29.261 28.8099C29.3154 28.7555 29.3586 28.6909 29.388 28.6198C29.4175 28.5487 29.4326 28.4725 29.4326 28.3956C29.4326 28.3186 29.4175 28.2424 29.388 28.1713C29.3586 28.1003 29.3154 28.0357 29.261 27.9812L28.6529 27.3732ZM19.8465 30.9945V31.8545C19.8465 32.1782 20.1088 32.4405 20.4324 32.4405C20.756 32.4405 21.0184 32.1782 21.0184 31.8545V30.9945C21.0184 30.6709 20.7561 30.4086 20.4324 30.4086C20.1088 30.4086 19.8465 30.6709 19.8465 30.9945ZM12.2307 27.328L11.6226 27.9361C11.5127 28.046 11.451 28.195 11.451 28.3504C11.451 28.5058 11.5127 28.6548 11.6226 28.7647C11.737 28.8791 11.887 28.9363 12.0369 28.9363C12.1868 28.9363 12.3368 28.8791 12.4512 28.7648L13.0593 28.1567C13.1661 28.0462 13.2253 27.8982 13.224 27.7445C13.2227 27.5908 13.1611 27.4437 13.0524 27.335C12.9437 27.2263 12.7967 27.1647 12.643 27.1634C12.4893 27.1621 12.3412 27.2212 12.2307 27.328ZM8.57812 19.3504C8.42272 19.3504 8.27369 19.4121 8.1638 19.522C8.05392 19.6319 7.99219 19.7809 7.99219 19.9363C7.99219 20.0917 8.05392 20.2408 8.1638 20.3506C8.27369 20.4605 8.42272 20.5223 8.57812 20.5223H9.43813C9.59353 20.5223 9.74256 20.4605 9.85245 20.3506C9.96233 20.2408 10.0241 20.0917 10.0241 19.9363C10.0241 19.7809 9.96233 19.6319 9.85245 19.522C9.74256 19.4121 9.59353 19.3504 9.43813 19.3504H8.57812ZM13.1045 11.7346L12.4964 11.1265C12.386 11.0191 12.2378 10.9595 12.0837 10.9606C11.9297 10.9616 11.7823 11.0233 11.6734 11.1322C11.5645 11.2411 11.5029 11.3885 11.5018 11.5425C11.5007 11.6965 11.5603 11.8448 11.6677 11.9552L12.2759 12.5632C12.3903 12.6777 12.5402 12.7348 12.6902 12.7348C12.8401 12.7348 12.9901 12.6777 13.1045 12.5632C13.2144 12.4533 13.2761 12.3043 13.2761 12.1489C13.2761 11.9935 13.2144 11.8445 13.1045 11.7346ZM22.0664 21.4663L26.24 23.6124C26.5295 23.7613 26.8819 23.6454 27.0291 23.3593C27.0643 23.2909 27.0856 23.2162 27.0919 23.1395C27.0983 23.0628 27.0894 22.9856 27.0659 22.9123C27.0424 22.8391 27.0047 22.7711 26.955 22.7124C26.9052 22.6537 26.8444 22.6054 26.7759 22.5702L22.6038 20.4248C22.6314 20.2874 22.6461 20.1454 22.6461 20C22.6461 19.0177 21.9837 18.1878 21.0823 17.932V11.9596C21.0823 11.8042 21.0205 11.6552 20.9106 11.5453C20.8008 11.4354 20.6517 11.3737 20.4963 11.3737C20.3409 11.3737 20.1919 11.4354 20.082 11.5453C19.9721 11.6552 19.9104 11.8042 19.9104 11.9596V17.932C19.1954 18.1349 18.6313 18.6991 18.4284 19.4141H15.52C15.3646 19.4141 15.2156 19.4758 15.1057 19.5857C14.9958 19.6956 14.9341 19.8446 14.9341 20C14.9341 20.1554 14.9958 20.3044 15.1057 20.4143C15.2156 20.5242 15.3646 20.5859 15.52 20.5859H18.4284C18.6841 21.4873 19.5141 22.1498 20.4963 22.1498C21.1154 22.1499 21.6738 21.8866 22.0664 21.4663ZM20.4963 20.978C19.957 20.978 19.5183 20.5394 19.5183 20.0001C19.5183 19.4609 19.957 19.0221 20.4963 19.0221C21.0355 19.0221 21.4741 19.4608 21.4741 20.0001C21.4742 20.5394 21.0355 20.978 20.4963 20.978Z" fill="black"/>
<path d="M35.6317 19.4134C35.7084 19.4075 35.7833 19.3866 35.8519 19.3518C35.9205 19.317 35.9817 19.2691 36.0318 19.2107C36.0819 19.1522 36.12 19.0845 36.1439 19.0114C36.1678 18.9383 36.1771 18.8611 36.1713 18.7844C35.8698 14.8475 34.1063 11.1929 31.2055 8.49371C28.2895 5.78043 24.4888 4.28613 20.5034 4.28613C11.8385 4.28613 4.78906 11.3355 4.78906 20.0004C4.78906 28.6654 11.8385 35.7147 20.5034 35.7147C28.6984 35.7147 35.5443 29.4018 36.1712 21.2166C36.183 21.0616 36.1328 20.9083 36.0317 20.7904C35.9305 20.6724 35.7866 20.5995 35.6316 20.5876C35.3103 20.5635 35.0274 20.8044 35.0027 21.1271C34.424 28.6848 28.1028 34.5429 20.5034 34.5429C12.4846 34.5429 5.96094 28.0192 5.96094 20.0004C5.96094 11.9817 12.4846 5.45801 20.5034 5.45801C24.1915 5.45801 27.7088 6.84082 30.4072 9.35168C33.0917 11.8496 34.7238 15.2314 35.0027 18.8739C35.0274 19.1964 35.3079 19.4386 35.6317 19.4134Z" fill="black"/>
<path d="M34.6422 5.85789C30.8647 2.08031 25.8423 0 20.5 0C16.6607 0 12.931 1.09094 9.71398 3.155C9.58319 3.23893 9.49109 3.37137 9.45795 3.5232C9.42481 3.67504 9.45334 3.83381 9.53727 3.96461C9.62119 4.0954 9.75364 4.1875 9.90547 4.22064C10.0573 4.25379 10.2161 4.22525 10.3469 4.14133C13.3746 2.19867 16.8855 1.17188 20.5 1.17188C25.5292 1.17188 30.2573 3.13031 33.8135 6.68648C37.3697 10.2427 39.3281 14.9708 39.3281 20C39.3281 30.4057 30.9072 38.8281 20.5 38.8281C18.6404 38.8281 16.8012 38.5566 15.0334 38.0212C14.9598 37.9988 14.8825 37.9912 14.8059 37.9988C14.7293 38.0064 14.655 38.0289 14.5871 38.0652C14.5193 38.1015 14.4592 38.1509 14.4104 38.2104C14.3617 38.2699 14.3251 38.3384 14.3028 38.4121C14.2578 38.5608 14.2736 38.7213 14.3469 38.8584C14.4202 38.9954 14.545 39.0977 14.6937 39.1427C16.5717 39.7116 18.5252 40 20.5 40C31.5534 40 40.5 31.0549 40.5 20C40.5 14.6578 38.4196 9.63539 34.6422 5.85789ZM12.9028 37.2312C6.08031 34.2186 1.67188 27.4549 1.67188 20C1.67188 14.3666 4.16492 9.07477 8.51172 5.48133C8.57102 5.4323 8.62009 5.37207 8.65612 5.30407C8.69215 5.23608 8.71443 5.16166 8.72169 5.08505C8.72896 5.00845 8.72107 4.93116 8.69846 4.85761C8.67586 4.78405 8.63899 4.71567 8.58996 4.65637C8.54093 4.59706 8.4807 4.54799 8.41271 4.51197C8.34471 4.47594 8.27029 4.45366 8.19368 4.44639C8.11708 4.43913 8.03979 4.44702 7.96624 4.46962C7.89269 4.49223 7.82431 4.52909 7.765 4.57812C3.14805 8.39492 0.5 14.0159 0.5 20C0.5 27.9188 5.18258 35.1032 12.4294 38.3033C12.5038 38.3363 12.5843 38.3533 12.6658 38.3534C12.8003 38.3535 12.9307 38.3073 13.0352 38.2227C13.1397 38.138 13.2119 38.02 13.2397 37.8885C13.2675 37.7569 13.2492 37.6197 13.1878 37.5001C13.1265 37.3804 13.0259 37.2854 12.9028 37.2312Z" fill="black"/>
</g>
<defs>
<clipPath id="clip0_17114_2678">
<rect width="40" height="40" fill="white" transform="translate(0.5)"/>
</clipPath>
</defs>
</svg>
