<svg width="25" height="25" viewBox="0 0 25 25" fill="none" xmlns="http://www.w3.org/2000/svg">
<path d="M12.2966 21.8713L12.2967 21.8712L12.2918 21.8686C10.3695 20.8201 7.02172 19.7205 4.89892 19.442C4.89839 19.4419 4.89785 19.4418 4.89732 19.4417L4.61066 19.4022L4.61067 19.4021L4.60296 19.4012C3.54718 19.2722 2.65234 18.2582 2.65234 17.1775V5.09751C2.65234 4.44277 2.90703 3.85864 3.36932 3.43689C3.83513 3.01194 4.43644 2.80796 5.07765 2.86551L5.07765 2.86554L5.08382 2.86602C7.20244 3.02973 10.4445 4.10368 12.2565 5.241L12.2634 5.24531L12.2704 5.2494L12.5104 5.3894L12.5104 5.38941L12.5143 5.39163C12.6559 5.47255 12.8094 5.48664 12.8945 5.48862C12.9758 5.49051 13.1265 5.48444 13.2659 5.41472L13.2872 5.4041L13.3073 5.39151L13.4673 5.29151L13.4682 5.291C15.2757 4.15649 18.504 3.06598 20.6341 2.87751H20.6343H20.6345H20.6347H20.635H20.6352H20.6355H20.6357H20.636H20.6362H20.6365H20.6367H20.637H20.6372H20.6375H20.6377H20.638H20.6382H20.6385H20.6387H20.639H20.6392H20.6395H20.6398H20.64H20.6403H20.6405H20.6408H20.641H20.6413H20.6416H20.6418H20.6421H20.6424H20.6426H20.6429H20.6431H20.6434H20.6437H20.6439H20.6442H20.6445H20.6447H20.645H20.6453H20.6455H20.6458H20.6461H20.6464H20.6466H20.6469H20.6472H20.6474H20.6477H20.648H20.6483H20.6485H20.6488H20.6491H20.6494H20.6496H20.6499H20.6502H20.6505H20.6507H20.651H20.6513H20.6516H20.6519H20.6521H20.6524H20.6527H20.653H20.6533H20.6535H20.6538H20.6541H20.6544H20.6547H20.655H20.6552H20.6555H20.6558H20.6561H20.6564H20.6567H20.6569H20.6572H20.6575H20.6578H20.6581H20.6584H20.6587H20.659H20.6592H20.6595H20.6598H20.6601H20.6604H20.6607H20.661H20.6613H20.6615H20.6618H20.6621H20.6624H20.6627H20.663H20.6633H20.6636H20.6639H20.6642H20.6645H20.6647H20.665H20.6653H20.6656H20.6659H20.6662H20.6665H20.6668H20.6671H20.6674H20.6677H20.668H20.6682H20.6685H20.6688H20.6691H20.6694H20.6697H20.67H20.6703H20.6706H20.6709H20.6712H20.6715H20.6718H20.6721H20.6723H20.6726H20.6729H20.6732H20.6735H20.6738H20.6741H20.6744H20.6747H20.675H20.6753H20.6756H20.6759H20.6761H20.6764H20.6767H20.677H20.6773H20.6776H20.6779H20.6782H20.6785H20.6788H20.6791H20.6794H20.6797H20.6799H20.6802H20.6805H20.6808H20.6811H20.6814H20.6817H20.682H20.6823H20.6826H20.6828H20.6831H20.6834H20.6837H20.684H20.6843H20.6846H20.6849H20.6852H20.6854H20.6857H20.686H20.6863H20.6866H20.6869H20.6872H20.6875H20.6877H20.688H20.6883H20.6886H20.6889H20.6892H20.6894H20.6897H20.69H20.6903H20.6906H20.6909H20.6911H20.6914H20.6917H20.692H20.6923H20.6925H20.6928H20.6931H20.6934H20.6937H20.6939H20.6942H20.6945H20.6948H20.695H20.6953H20.6956H20.6959H20.6961H20.6964H20.6967H20.697H20.6972H20.6975H20.6978H20.6981H20.6983H20.6986H20.6989H20.6991H20.6994H20.6997H20.6999H20.7002H20.7005H20.7007H20.701H20.7013H20.7015H20.7018H20.7021H20.7023H20.7026H20.7029H20.7031H20.7034H20.7036H20.7039H20.7042H20.7044H20.7047H20.7049H20.7052H20.7054H20.7057H20.706H20.7062H20.7065H20.7067H20.707H20.7072H20.7075H20.7077H20.708H20.7082H20.7085H20.7087H20.709H20.7092H20.7094H20.7097H20.7099H20.7102H20.7104H20.7107H20.7109H20.7111H20.7114H20.7116H20.7119H20.7121H20.7123H20.7126H20.7128H20.713H20.7133H20.7135H20.7137H20.714H20.7142H20.7144H20.7147H20.7149H20.7151H20.7153H20.7156H20.7158H20.716H20.7162H20.7164H20.7167H20.7169H20.7171H20.7173H20.7175H20.7178H20.718H20.7182H20.7184H20.7186H20.7188H20.719H20.7192H20.7194H20.7197H20.7199H20.7201H20.7203H20.7205H20.7207H20.7209H20.7211H20.7213H20.7215H20.7217H20.7219H20.7221H20.7223H20.7225H20.7227H20.7228H20.723H20.7232H20.7234H20.7236H20.7238H20.724H20.7242H20.7243H20.7245H20.7247H20.7249H20.7251H20.7252H20.7254H20.7256H20.7258H20.7259H20.7261H20.7263H20.7264H20.7266H20.7268H20.7269H20.7271H20.7273H20.7274H20.7276H20.7278H20.7279H20.7281H20.7282H20.7284H20.7285H20.7287H20.7288H20.729H20.7291H20.7293H20.7294H20.7296H20.7297H20.7299H20.73H20.7302H20.7303H20.7304H20.7306H20.7307H20.7308H20.731H20.7311H20.7312H20.7314H20.7315H20.7316H20.7317H20.7319H20.732H20.7321H20.7322H20.7323H20.7563L20.7801 2.87522C21.362 2.81942 21.9723 3.02695 22.4321 3.4539L22.4321 3.45392L22.4354 3.45689C22.8977 3.87864 23.1523 4.46277 23.1523 5.11751V17.1875C23.1523 18.2761 22.2597 19.2817 21.1922 19.4111L20.8622 19.4511L20.8574 19.4517C18.7345 19.73 15.3747 20.84 13.4907 21.8798L13.4907 21.8796L13.4804 21.8856C13.3369 21.9693 13.1403 22.0175 12.9023 22.0175C12.6762 22.0175 12.4624 21.9641 12.2966 21.8713ZM3.70521 3.80826L3.70521 3.80826L3.70382 3.80954C3.3443 4.14029 3.15234 4.6069 3.15234 5.09751V17.1775C3.15234 17.6148 3.33894 18.0182 3.60295 18.3187C3.86655 18.6188 4.23969 18.8533 4.66285 18.9127L4.66626 18.9131L4.96626 18.9531C7.15516 19.245 10.5465 20.3557 12.4931 21.4165L12.5108 21.4262L12.5293 21.4344C12.6343 21.4811 12.7437 21.5036 12.8326 21.5125C12.8992 21.5192 13.0458 21.5286 13.188 21.4717L13.2174 21.46L13.245 21.4447C15.1885 20.366 18.5957 19.2463 20.7945 18.9536L21.1308 18.9141L21.1333 18.9138C21.5632 18.861 21.9393 18.6229 22.2026 18.3215C22.4665 18.0195 22.6523 17.6139 22.6523 17.1775V5.10751C22.6523 4.60273 22.4578 4.15204 22.1086 3.81681L22.1013 3.80976L22.0936 3.80301C21.7317 3.48285 21.2758 3.33458 20.7898 3.35751H20.7897H20.7894H20.7892H20.789H20.7888H20.7886H20.7884H20.7882H20.788H20.7878H20.7875H20.7873H20.7871H20.7869H20.7867H20.7864H20.7862H20.786H20.7858H20.7856H20.7853H20.7851H20.7849H20.7847H20.7844H20.7842H20.784H20.7837H20.7835H20.7833H20.783H20.7828H20.7826H20.7823H20.7821H20.7819H20.7816H20.7814H20.7811H20.7809H20.7807H20.7804H20.7802H20.7799H20.7797H20.7794H20.7792H20.779H20.7787H20.7785H20.7782H20.778H20.7777H20.7775H20.7772H20.777H20.7767H20.7765H20.7762H20.776H20.7757H20.7754H20.7752H20.7749H20.7747H20.7744H20.7742H20.7739H20.7736H20.7734H20.7731H20.7729H20.7726H20.7723H20.7721H20.7718H20.7715H20.7713H20.771H20.7707H20.7705H20.7702H20.7699H20.7697H20.7694H20.7691H20.7689H20.7686H20.7683H20.7681H20.7678H20.7675H20.7672H20.767H20.7667H20.7664H20.7661H20.7659H20.7656H20.7653H20.765H20.7648H20.7645H20.7642H20.7639H20.7637H20.7634H20.7631H20.7628H20.7625H20.7623H20.762H20.7617H20.7614H20.7611H20.7609H20.7606H20.7603H20.76H20.7597H20.7594H20.7592H20.7589H20.7586H20.7583H20.758H20.7577H20.7575H20.7572H20.7569H20.7566H20.7563H20.756H20.7557H20.7554H20.7552H20.7549H20.7546H20.7543H20.754H20.7537H20.7534H20.7531H20.7528H20.7526H20.7523H20.752H20.7517H20.7514H20.7511H20.7508H20.7505H20.7502H20.7499H20.7497H20.7494H20.7491H20.7488H20.7485H20.7482H20.7479H20.7476H20.7473H20.747H20.7467H20.7464H20.7462H20.7459H20.7456H20.7453H20.745H20.7447H20.7444H20.7441H20.7438H20.7435H20.7432H20.7429H20.7426H20.7423H20.7421H20.7418H20.7415H20.7412H20.7409H20.7406H20.7403H20.74H20.7397H20.7394H20.7391H20.7388H20.7385H20.7382H20.738H20.7377H20.7374H20.7371H20.7368H20.7365H20.7362H20.7359H20.7356H20.7353H20.735H20.7347H20.7345H20.7342H20.7339H20.7336H20.7333H20.733H20.7327H20.7324H20.7321H20.7318H20.7316H20.7313H20.731H20.7307H20.7304H20.7301H20.7298H20.7295H20.7292H20.729H20.7287H20.7284H20.7281H20.7278H20.7275H20.7272H20.7269H20.7267H20.7264H20.7261H20.7258H20.7255H20.7252H20.725H20.7247H20.7244H20.7241H20.7238H20.7235H20.7233H20.723H20.7227H20.7224H20.7221H20.7219H20.7216H20.7213H20.721H20.7207H20.7205H20.7202H20.7199H20.7196H20.7194H20.7191H20.7188H20.7185H20.7183H20.718H20.7177H20.7174H20.7172H20.7169H20.7166H20.7164H20.7161H20.7158H20.7155H20.7153H20.715H20.7147H20.7145H20.7142H20.7139H20.7137H20.7134H20.7131H20.7129H20.7126H20.7124H20.7121H20.7118H20.7116H20.7113H20.711H20.7108H20.7105H20.7103H20.71H20.7098H20.7095H20.7092H20.709H20.7087H20.7085H20.7082H20.708H20.7077H20.7075H20.7072H20.707H20.7067H20.7065H20.7062H20.706H20.7057H20.7055H20.7052H20.705H20.7048H20.7045H20.7043H20.704H20.7038H20.7035H20.7033H20.7031H20.7028H20.7026H20.7024H20.7021H20.7019H20.7016H20.7014H20.7012H20.701H20.7007H20.7005H20.7003H20.7H20.6998H20.6996H20.6994H20.6991H20.6989H20.6987H20.6985H20.6982H20.698H20.6978H20.6976H20.6974H20.6971H20.6969H20.6967H20.6965H20.6963H20.6961H20.6959H20.6957H20.6954H20.6952H20.695H20.6948H20.6946H20.6944H20.6942H20.694H20.6938H20.6936H20.6934H20.6932H20.693H20.6928H20.6926H20.6924H20.6922H20.692H20.6918H20.6917H20.6915H20.6913H20.6911H20.6909H20.6907H20.6905H20.6904H20.6902H20.69H20.6898H20.6896H20.6895H20.6893H20.6891H20.6889H20.6888H20.6886H20.6884H20.6882H20.6881H20.6879H20.6877H20.6876H20.6874H20.6872H20.6871H20.6869H20.6868H20.6866H20.6865H20.6863H20.6861H20.686H20.6858H20.6857H20.6855H20.6854H20.6852H20.6851H20.685H20.6848H20.6847H20.6845H20.6844H20.6843H20.6841H20.684H20.6838H20.6837H20.6836H20.6835H20.6833H20.6832H20.6831H20.6829H20.6828H20.6827H20.6826H20.6825H20.6823H20.6601L20.638 3.35948C19.6296 3.44923 18.3411 3.76165 17.1017 4.17861C15.8619 4.59568 14.6322 5.13045 13.7473 5.68351L13.7381 5.6893L13.7291 5.69549L13.5801 5.79793C13.1883 6.03446 12.6189 6.0286 12.2566 5.80306L12.2505 5.79925L12.2443 5.79562L12.0091 5.65842C11.1105 5.1075 9.87636 4.57675 8.62805 4.16403C7.378 3.75074 6.07671 3.44355 5.04302 3.35917L5.02272 3.35751H5.00234H5.00211H5.00187H5.00164H5.00141H5.00117H5.00094H5.0007H5.00047H5.00023H5H4.99977H4.99953H4.9993H4.99906H4.99883H4.99859H4.99836H4.99812H4.99789H4.99766H4.99742H4.99719H4.99695H4.99672H4.99648H4.99625H4.99602H4.99578H4.99555H4.99531H4.99508H4.99484H4.99461H4.99437H4.99414H4.99391H4.99367H4.99344H4.9932H4.99297H4.99273H4.9925H4.99227H4.99203H4.9918H4.99156H4.99133H4.99109H4.99086H4.99062H4.99039H4.99016H4.98992H4.98969H4.98945H4.98922H4.98898H4.98875H4.98852H4.98828H4.98805H4.98781H4.98758H4.98734H4.98711H4.98687H4.98664H4.98641H4.98617H4.98594H4.9857H4.98547H4.98523H4.985H4.98477H4.98453H4.9843H4.98406H4.98383H4.98359H4.98336H4.98312H4.98289H4.98266H4.98242H4.98219H4.98195H4.98172H4.98148H4.98125H4.98102H4.98078H4.98055H4.98031H4.98008H4.97984H4.97961H4.97937H4.97914H4.97891H4.97867H4.97844H4.9782H4.97797H4.97773H4.9775H4.97727H4.97703H4.9768H4.97656H4.97633H4.97609H4.97586H4.97563H4.97539H4.97516H4.97492H4.97469H4.97445H4.97422H4.97398H4.97375H4.97352H4.97328H4.97305H4.97281H4.97258H4.97234H4.97211H4.97187H4.97164H4.97141H4.97117H4.97094H4.9707H4.97047H4.97023H4.97H4.96977H4.96953H4.9693H4.96906H4.96883H4.96859H4.96836H4.96812H4.96789H4.96766H4.96742H4.96719H4.96695H4.96672H4.96648H4.96625H4.96602H4.96578H4.96555H4.96531H4.96508H4.96484H4.96461H4.96438H4.96414H4.96391H4.96367H4.96344H4.9632H4.96297H4.96273H4.9625H4.96227H4.96203H4.9618H4.96156H4.96133H4.96109H4.96086H4.96062H4.96039H4.96016H4.95992H4.95969H4.95945H4.95922H4.95898H4.95875H4.95852H4.95828H4.95805H4.95781H4.95758H4.95734H4.95711H4.95687H4.95664H4.95641H4.95617H4.95594H4.9557H4.95547H4.95523H4.955H4.95477H4.95453H4.9543H4.95406H4.95383H4.95359H4.95336H4.95312H4.95289H4.95266H4.95242H4.95219H4.95195H4.95172H4.95148H4.95125H4.95102H4.95078H4.95055H4.95031H4.95008H4.94984H4.94961H4.94937H4.94914H4.94891H4.94867H4.94844H4.9482H4.94797H4.94773H4.9475H4.94727H4.94703H4.9468H4.94656H4.94633H4.94609H4.94586H4.94563H4.94539H4.94516H4.94492H4.94469H4.94445H4.94422H4.94398H4.94375H4.94352H4.94328H4.94305H4.94281H4.94258H4.94234H4.94211H4.94187H4.94164H4.94141H4.94117H4.94094H4.9407H4.94047H4.94023H4.94H4.93977H4.93953H4.9393H4.93906H4.93883H4.93859H4.93836H4.93812H4.93789H4.93766H4.93742H4.93719H4.93695H4.93672H4.93648H4.93625H4.93602H4.93578H4.93555H4.93531H4.93508H4.93484H4.93461H4.93438H4.93414H4.93391H4.93367H4.93344H4.9332H4.93297H4.93273H4.9325H4.93227H4.93203H4.9318H4.93156H4.93133H4.93109H4.93086H4.93062H4.93039H4.93016H4.92992H4.92969H4.92945H4.92922H4.92898H4.92875H4.92852H4.92828H4.92805H4.92781H4.92758H4.92734H4.92711H4.92687H4.92664H4.92641H4.92617H4.92594H4.9257H4.92547H4.92523H4.925H4.92477H4.92453H4.9243H4.92406H4.92383H4.92359H4.92336H4.92313H4.92289H4.92266H4.92242H4.92219H4.92195H4.92172H4.92148H4.92125H4.92102H4.92078H4.92055H4.92031H4.92008H4.91984H4.91961H4.91937H4.91914H4.91891H4.91867H4.91844H4.9182H4.91797H4.91773H4.9175H4.91727H4.91703H4.9168H4.91656H4.91633H4.91609H4.91586H4.91563H4.91539H4.91516H4.91492H4.91469H4.91445H4.91422H4.91398H4.91375H4.91352H4.91328H4.91305H4.91281H4.91258H4.91234H4.91211H4.91188H4.91164H4.91141H4.91117H4.91094H4.9107H4.91047H4.91023H4.91H4.90977H4.90953H4.9093H4.90906H4.90883H4.90859H4.90836H4.90812H4.90789H4.90766H4.90742H4.90719H4.90695H4.90672H4.90648H4.90625H4.90602H4.90578H4.90555H4.90531H4.90508H4.90484H4.90461H4.90438H4.90414H4.90391H4.90367H4.90344H4.9032H4.90297H4.90273H4.9025H4.90227H4.90203H4.9018H4.90156H4.90133H4.90109H4.90086H4.90062H4.90039H4.90016H4.89992H4.89969H4.89945H4.89922H4.89898H4.89875H4.89852H4.89828H4.89805H4.89781H4.89758H4.89734H4.89711H4.89687H4.89664H4.89641H4.89617H4.89594H4.8957H4.89547H4.89523H4.895H4.89477H4.89453H4.8943H4.89406H4.89383H4.89359H4.89336H4.89313H4.89289H4.89266H4.89242H4.89219H4.89195H4.89172H4.89148H4.89125H4.89102H4.89078H4.89055H4.89031H4.89008H4.88984H4.88961H4.88937H4.88914H4.88891H4.88867H4.88844H4.8882H4.88797H4.88773H4.8875H4.88727H4.88703H4.8868H4.88656H4.88633H4.88609H4.88586H4.88563H4.88539H4.88516H4.88492H4.88469H4.88445H4.88422H4.88398H4.88375H4.88352H4.88328H4.88305H4.88281H4.88258H4.88234C4.44219 3.35751 4.03068 3.5111 3.70521 3.80826Z" fill="#999999" stroke="#999999"/>
<path d="M12.9023 21.1777C12.7685 21.1777 12.6523 21.0616 12.6523 20.9277V5.92773C12.6523 5.79388 12.7685 5.67773 12.9023 5.67773C13.0362 5.67773 13.1523 5.79388 13.1523 5.92773V20.9277C13.1523 21.0673 13.0406 21.1777 12.9023 21.1777Z" fill="#999999" stroke="#999999"/>
<path d="M8.65234 9.17773H6.40234C6.26849 9.17773 6.15234 9.06159 6.15234 8.92773C6.15234 8.79388 6.26849 8.67773 6.40234 8.67773H8.65234C8.7862 8.67773 8.90234 8.79388 8.90234 8.92773C8.90234 9.06159 8.7862 9.17773 8.65234 9.17773Z" fill="#999999" stroke="#999999"/>
<path d="M9.40234 12.6777H6.40234C5.99234 12.6777 5.65234 12.3377 5.65234 11.9277C5.65234 11.5177 5.99234 11.1777 6.40234 11.1777H9.40234C9.81234 11.1777 10.1523 11.5177 10.1523 11.9277C10.1523 12.3377 9.81234 12.6777 9.40234 12.6777Z" fill="#999999"/>
</svg>
