<svg width="16" height="16" viewBox="0 0 16 16" fill="none" xmlns="http://www.w3.org/2000/svg">
<g clip-path="url(#clip0_17060_827)">
<path d="M11.332 2.22627C12.3375 2.80684 13.174 3.63995 13.7586 4.64314C14.3432 5.64632 14.6556 6.78478 14.665 7.94583C14.6744 9.10687 14.3803 10.2502 13.812 11.2627C13.2437 12.2752 12.4209 13.1217 11.4249 13.7185C10.4289 14.3152 9.29428 14.6415 8.13343 14.665C6.97259 14.6885 5.82573 14.4084 4.8064 13.8524C3.78707 13.2965 2.93061 12.484 2.32181 11.4953C1.71301 10.5066 1.37297 9.37608 1.33536 8.2156L1.33203 7.9996L1.33536 7.7836C1.3727 6.63226 1.70773 5.51024 2.30779 4.52693C2.90785 3.54362 3.75247 2.73257 4.75929 2.17286C5.76612 1.61314 6.9008 1.32387 8.0527 1.33323C9.20461 1.34259 10.3344 1.65027 11.332 2.22627ZM10.47 6.19494C10.3552 6.08015 10.2025 6.0112 10.0405 6.00101C9.87847 5.99082 9.7183 6.0401 9.59003 6.1396L9.52736 6.19494L7.33203 8.3896L6.47003 7.52827L6.40736 7.47294C6.27909 7.37351 6.11895 7.32429 5.95697 7.33451C5.79499 7.34472 5.6423 7.41368 5.52754 7.52844C5.41278 7.64321 5.34382 7.79589 5.3336 7.95787C5.32338 8.11985 5.3726 8.27999 5.47203 8.40827L5.52736 8.47094L6.8607 9.80427L6.92336 9.8596C7.04028 9.95031 7.18405 9.99955 7.33203 9.99955C7.48001 9.99955 7.62378 9.95031 7.7407 9.8596L7.80336 9.80427L10.47 7.1376L10.5254 7.07494C10.6249 6.94667 10.6741 6.7865 10.664 6.62448C10.6538 6.46246 10.5848 6.30973 10.47 6.19494Z" fill="#245741"/>
</g>
<defs>
<clipPath id="clip0_17060_827">
<rect width="16" height="16" fill="white"/>
</clipPath>
</defs>
</svg>
