<svg width="18" height="18" viewBox="0 0 18 18" fill="none" xmlns="http://www.w3.org/2000/svg">
<path d="M3.85938 16.5C3.55187 16.5 3.29688 16.245 3.29688 15.9375V2.0625C3.29688 1.755 3.55187 1.5 3.85938 1.5C4.16688 1.5 4.42188 1.755 4.42188 2.0625V15.9375C4.42188 16.245 4.16688 16.5 3.85938 16.5Z" fill="#FDB338"/>
<path d="M13.5156 9.24703L12.6006 8.33203C12.3831 8.14453 12.2556 7.86703 12.2481 7.55953C12.2331 7.22203 12.3681 6.88453 12.6156 6.63703L13.5156 5.73703C14.2956 4.95703 14.5881 4.20703 14.3406 3.61453C14.1006 3.02953 13.3581 2.70703 12.2631 2.70703H3.86313C3.70563 2.71453 3.57812 2.84203 3.57812 2.99953V11.9995C3.57812 12.157 3.70563 12.2845 3.86313 12.2845H12.2631C13.3431 12.2845 14.0706 11.9545 14.3181 11.362C14.5656 10.762 14.2806 10.0195 13.5156 9.24703Z" fill="#FDB338"/>
</svg>
