<svg width="26" height="26" viewBox="0 0 26 26" fill="none" xmlns="http://www.w3.org/2000/svg">
<path d="M22.02 8.99268L15.1776 3.51875C13.8404 2.45321 11.7511 2.44277 10.4244 3.5083L3.58202 8.99268C2.60006 9.77616 2.00461 11.3431 2.21354 12.5758L3.52979 20.4524C3.83274 22.2179 5.47283 23.6072 7.25917 23.6072H18.3324C20.0978 23.6072 21.7693 22.1865 22.0722 20.442L23.3885 12.5654C23.5765 11.3431 22.981 9.77616 22.02 8.99268Z" fill="white"/>
<path d="M12.7952 20.2121C12.3669 20.2121 12.0117 19.8569 12.0117 19.4286V16.2947C12.0117 15.8664 12.3669 15.5112 12.7952 15.5112C13.2235 15.5112 13.5787 15.8664 13.5787 16.2947V19.4286C13.5787 19.8569 13.2235 20.2121 12.7952 20.2121Z" fill="#FDB338"/>
</svg>
