<svg width="30" height="31" viewBox="0 0 30 31" fill="none" xmlns="http://www.w3.org/2000/svg">
<rect y="0.5" width="30" height="30" rx="15" fill="#FFF7EB"/>
<path opacity="0.4" d="M15 25.5C20.5228 25.5 25 21.0228 25 15.5C25 9.97715 20.5228 5.5 15 5.5C9.47715 5.5 5 9.97715 5 15.5C5 21.0228 9.47715 25.5 15 25.5Z" fill="#6B6B6B"/>
<path d="M18.7511 14.23V13.5C18.7511 12.57 18.7511 9.75 15.0011 9.75C11.2511 9.75 11.2511 12.57 11.2511 13.5V14.23C10.0311 14.5 9.62109 15.29 9.62109 17V18C9.62109 20.2 10.3011 20.88 12.5011 20.88H17.5011C19.7011 20.88 20.3811 20.2 20.3811 18V17C20.3811 15.29 19.9711 14.5 18.7511 14.23ZM15.0011 18.6C14.3911 18.6 13.9011 18.11 13.9011 17.5C13.9011 16.89 14.3911 16.4 15.0011 16.4C15.6111 16.4 16.1011 16.89 16.1011 17.5C16.1011 18.11 15.6111 18.6 15.0011 18.6ZM17.2511 14.12H12.7511V13.5C12.7511 12.04 13.1111 11.25 15.0011 11.25C16.8911 11.25 17.2511 12.04 17.2511 13.5V14.12Z" fill="#6B6B6B"/>
</svg>
