<svg width="40" height="40" viewBox="0 0 40 40" fill="none" xmlns="http://www.w3.org/2000/svg">
<path d="M29.2344 28.646L31.4497 26.4307L34.5927 29.5736L32.3773 31.7889L29.2344 28.646Z" fill="#E6E2E6"/>
<path d="M29.2344 28.646L31.4497 26.4307L34.5927 29.5736L32.3773 31.7889L29.2344 28.646Z" fill="#ECDAEC"/>
<path d="M29.2383 28.6463L30.2928 27.5918L33.4358 30.7348L32.3812 31.7893L29.2383 28.6463Z" fill="#E2CBE2"/>
<path d="M0.625 1.79688C0.625 1.14969 1.14969 0.625 1.79688 0.625H21.5191L28.7798 7.8857V38.2031C28.7798 38.8503 28.2552 39.375 27.608 39.375H1.79688C1.14969 39.375 0.625 38.8503 0.625 38.2031V1.79688Z" fill="#F9F6F6"/>
<path d="M27.608 37.9688H1.79688C1.14969 37.9688 0.625 37.4441 0.625 36.7969V38.2031C0.625 38.8503 1.14969 39.375 1.79688 39.375H27.608C28.2552 39.375 28.7798 38.8503 28.7798 38.2031V36.7969C28.7798 37.4441 28.2552 37.9688 27.608 37.9688Z" fill="#ECDAEC"/>
<path d="M22.6914 7.8857H28.7802L21.5195 0.625V6.71383C21.5195 7.36102 22.0442 7.8857 22.6914 7.8857Z" fill="#E2CBE2"/>
<path d="M22.6914 7.8857H28.7802L21.5195 0.625V6.71383C21.5195 7.36102 22.0442 7.8857 22.6914 7.8857Z" fill="#E2CBE2"/>
<path d="M24.5261 31.4389C29.8972 31.4389 34.2514 27.0847 34.2514 21.7136C34.2514 16.3425 29.8972 11.9883 24.5261 11.9883C19.155 11.9883 14.8008 16.3425 14.8008 21.7136C14.8008 27.0847 19.155 31.4389 24.5261 31.4389Z" fill="#E2CBE2"/>
<path d="M31.4029 27.1844C27.6049 30.9824 21.4472 30.9824 17.6492 27.1844C15.9292 25.4644 14.9881 23.2604 14.8261 21.0107C14.6303 23.7285 15.5713 26.5128 17.6492 28.5907C21.4472 32.3886 27.6049 32.3886 31.4029 28.5907C33.4808 26.5127 34.4218 23.7285 34.226 21.0107C34.0639 23.2604 33.1229 25.4644 31.4029 27.1844Z" fill="#DAB9D8"/>
<path d="M24.5259 28.755C28.4149 28.755 31.5675 25.6024 31.5675 21.7134C31.5675 17.8245 28.4149 14.6719 24.5259 14.6719C20.637 14.6719 17.4844 17.8245 17.4844 21.7134C17.4844 25.6024 20.637 28.755 24.5259 28.755Z" fill="#FFE27A"/>
<path d="M29.5044 25.2868C26.7545 28.0367 22.296 28.0367 19.5462 25.2868C18.3503 24.0909 17.6752 22.5718 17.5194 21.0107C17.317 23.0393 17.9922 25.1389 19.5462 26.693C22.296 29.4429 26.7545 29.4429 29.5044 26.693C31.0584 25.1389 31.7336 23.0393 31.5312 21.0107C31.3755 22.5718 30.7002 24.0909 29.5044 25.2868Z" fill="#F9CF58"/>
<path d="M23.8977 24.6109C23.5884 24.6109 23.2788 24.4951 23.0395 24.2624L21.4237 22.6911C20.9362 22.217 20.9252 21.4376 21.3993 20.95C21.8734 20.4625 22.6529 20.4516 23.1404 20.9256L23.8748 21.6398L26.081 19.3774C26.5558 18.8906 27.3354 18.8809 27.8222 19.3555C28.309 19.8303 28.3188 20.6099 27.8441 21.0967L24.7793 24.2393C24.6647 24.3571 24.5277 24.4507 24.3762 24.5146C24.2248 24.5784 24.0621 24.6112 23.8977 24.6109Z" fill="#98DB7C"/>
<path d="M27.8433 19.6904L24.7785 22.833C24.6639 22.9508 24.5268 23.0444 24.3754 23.1082C24.224 23.172 24.0613 23.2048 23.8969 23.2046C23.5876 23.2046 23.278 23.0888 23.0387 22.8561L21.4229 21.2848C21.3669 21.2301 21.3162 21.1702 21.2716 21.1059C20.9328 21.5918 20.9844 22.2646 21.4229 22.691L23.0387 24.2623C23.2683 24.4862 23.5763 24.6113 23.8969 24.6109C24.2173 24.6109 24.5373 24.4866 24.7785 24.2392L27.8433 21.0966C28.2627 20.6666 28.3033 20.0083 27.9715 19.5332C27.9331 19.589 27.8902 19.6416 27.8433 19.6904Z" fill="#82D361"/>
<path d="M35.0388 29.1367L31.9492 32.2263L35.6459 35.923C36.4991 36.7761 37.8823 36.7761 38.7355 35.923C39.5886 35.0698 39.5886 33.6866 38.7355 32.8334L35.0388 29.1367Z" fill="#FF4755"/>
<path d="M36.6994 34.8664L33.0039 31.1709L31.9492 32.2256L35.6459 35.9222C36.499 36.7754 37.8823 36.7754 38.7354 35.9222C38.916 35.742 39.0636 35.5314 39.1715 35.3001C38.362 35.6794 37.368 35.535 36.6994 34.8664Z" fill="#FC2B3A"/>
<path d="M7.92086 15.422H5.3575C5.1653 15.422 4.98097 15.3456 4.84507 15.2097C4.70916 15.0738 4.63281 14.8895 4.63281 14.6973V12.1339C4.63281 11.9417 4.70916 11.7573 4.84507 11.6214C4.98097 11.4855 5.1653 11.4092 5.3575 11.4092H7.92094C8.11314 11.4092 8.29746 11.4855 8.43337 11.6214C8.56927 11.7573 8.64563 11.9417 8.64563 12.1339V14.6973C8.6456 14.8895 8.56924 15.0738 8.43332 15.2097C8.2974 15.3456 8.11307 15.422 7.92086 15.422ZM7.92086 23.6378H5.3575C5.26233 23.6378 5.1681 23.619 5.08017 23.5826C4.99225 23.5462 4.91236 23.4928 4.84507 23.4255C4.77778 23.3582 4.72439 23.2783 4.68798 23.1904C4.65156 23.1025 4.63281 23.0083 4.63281 22.9131V20.3496C4.63281 20.1574 4.70916 19.9731 4.84507 19.8372C4.98097 19.7013 5.1653 19.625 5.3575 19.625H7.92094C8.11314 19.625 8.29746 19.7013 8.43337 19.8372C8.56927 19.9731 8.64563 20.1574 8.64563 20.3496V22.9131C8.6456 23.1053 8.56924 23.2896 8.43332 23.4255C8.2974 23.5614 8.11307 23.6378 7.92086 23.6378ZM7.92086 32.0204H5.3575C5.1653 32.0204 4.98097 31.944 4.84507 31.8081C4.70916 31.6722 4.63281 31.4879 4.63281 31.2957V28.7322C4.63281 28.54 4.70916 28.3557 4.84507 28.2198C4.98097 28.0839 5.1653 28.0075 5.3575 28.0075H7.92094C8.11314 28.0075 8.29746 28.0839 8.43337 28.2198C8.56927 28.3557 8.64563 28.54 8.64563 28.7322V31.2957C8.6456 31.4879 8.56924 31.6722 8.43332 31.8081C8.2974 31.944 8.11307 32.0204 7.92086 32.0204Z" fill="#98DB7C"/>
<path d="M7.92086 14.0156H5.3575C5.16531 14.0156 4.981 13.9393 4.8451 13.8034C4.70919 13.6675 4.63283 13.4832 4.63281 13.291V14.6973C4.63281 14.8895 4.70916 15.0738 4.84507 15.2097C4.98097 15.3456 5.1653 15.422 5.3575 15.422H7.92094C8.0161 15.422 8.11033 15.4032 8.19825 15.3668C8.28617 15.3304 8.36605 15.277 8.43334 15.2097C8.50063 15.1424 8.554 15.0625 8.59041 14.9746C8.62682 14.8867 8.64556 14.7924 8.64555 14.6973V13.291C8.64553 13.4832 8.56917 13.6675 8.43326 13.8034C8.29736 13.9393 8.11304 14.0156 7.92086 14.0156ZM7.92086 22.2314H5.3575C5.1653 22.2314 4.98097 22.1551 4.84507 22.0191C4.70916 21.8832 4.63281 21.6989 4.63281 21.5067V22.913C4.63281 23.0081 4.65156 23.1024 4.68798 23.1903C4.72439 23.2782 4.77778 23.3581 4.84507 23.4254C4.91236 23.4927 4.99225 23.5461 5.08017 23.5825C5.1681 23.6189 5.26233 23.6377 5.3575 23.6377H7.92094C8.0161 23.6377 8.11033 23.6189 8.19825 23.5825C8.28617 23.5461 8.36605 23.4927 8.43334 23.4254C8.50063 23.3581 8.554 23.2782 8.59041 23.1903C8.62682 23.1024 8.64556 23.0081 8.64555 22.913V21.5067C8.64555 21.6989 8.5692 21.8832 8.43329 22.0191C8.29739 22.1551 8.11306 22.2314 7.92086 22.2314ZM7.92086 30.614H5.3575C5.1653 30.614 4.98097 30.5376 4.84507 30.4017C4.70916 30.2658 4.63281 30.0815 4.63281 29.8893V31.2955C4.63281 31.4877 4.70916 31.6721 4.84507 31.808C4.98097 31.9439 5.1653 32.0202 5.3575 32.0202H7.92094C8.0161 32.0202 8.11033 32.0015 8.19825 31.9651C8.28617 31.9286 8.36605 31.8753 8.43334 31.808C8.50063 31.7407 8.554 31.6608 8.59041 31.5729C8.62682 31.4849 8.64556 31.3907 8.64555 31.2955V29.8893C8.64555 30.0815 8.5692 30.2658 8.43329 30.4017C8.29739 30.5376 8.11306 30.614 7.92086 30.614Z" fill="#82D361"/>
<path d="M21.5195 6.71387V8.12012C21.5195 8.7673 22.0442 9.29199 22.6914 9.29199H28.7802V7.88574H22.6914C22.0442 7.88574 21.5195 7.36105 21.5195 6.71387Z" fill="#ECDAEC"/>
<path d="M23.908 25.2073C24.4031 25.2073 24.8661 25.0122 25.2118 24.6578L28.283 21.509C28.9839 20.7903 28.9694 19.6353 28.2506 18.9343C27.5317 18.2334 26.3765 18.2479 25.6756 18.9666L23.8739 20.8136L23.5583 20.5068C22.8385 19.8071 21.6833 19.8231 20.9832 20.5429C20.2834 21.2626 20.2996 22.4176 21.0194 23.1175L22.6386 24.6919C22.978 25.0233 23.4337 25.2083 23.908 25.2073ZM21.8253 21.3615C22.074 21.1057 22.4844 21.1004 22.7398 21.3487L23.4757 22.0643C23.5872 22.1727 23.7372 22.2324 23.8928 22.2304C24.0483 22.2283 24.1967 22.1646 24.3053 22.0533L26.5163 19.7865C26.7653 19.5311 27.1756 19.5262 27.4307 19.775C27.686 20.024 27.6911 20.4341 27.4423 20.6893L24.3711 23.838C24.1338 24.0918 23.7014 24.0972 23.4573 23.8502L21.8381 22.2758C21.5825 22.0272 21.5767 21.617 21.8253 21.3615Z" fill="black"/>
<path d="M19.3675 25.6061C19.2725 25.4851 19.1339 25.4062 18.9814 25.3863C18.8289 25.3665 18.6746 25.4072 18.5518 25.4998C18.429 25.5925 18.3475 25.7296 18.3247 25.8817C18.3019 26.0338 18.3397 26.1888 18.43 26.3133C18.6454 26.5984 18.8802 26.8682 19.1329 27.1209C20.5766 28.5644 22.496 29.3593 24.5377 29.3593C26.5793 29.3593 28.4987 28.5644 29.9423 27.1209C31.3861 25.6775 32.1811 23.7582 32.1811 21.7169C32.1811 19.6755 31.386 17.7564 29.9423 16.3129C26.9621 13.3332 22.1131 13.3332 19.1329 16.3129C17.1011 18.3444 16.3821 21.3079 17.2566 24.047C17.304 24.1953 17.4083 24.3187 17.5467 24.3901C17.6851 24.4615 17.8461 24.475 17.9944 24.4278C18.0679 24.4043 18.136 24.3667 18.1949 24.3169C18.2538 24.2671 18.3023 24.2062 18.3377 24.1377C18.373 24.0692 18.3945 23.9944 18.401 23.9176C18.4074 23.8407 18.3987 23.7634 18.3752 23.69C17.635 21.3714 18.2435 18.8628 19.9634 17.1432C22.4855 14.6213 26.5898 14.6213 29.1119 17.1432C30.3338 18.365 31.0068 19.9892 31.0068 21.717C31.0068 23.4447 30.3338 25.069 29.1119 26.2907C27.8902 27.5124 26.2656 28.1853 24.5377 28.1853C22.8098 28.1853 21.1852 27.5125 19.9633 26.2907C19.7491 26.0765 19.5501 25.8478 19.3675 25.6061Z" fill="black"/>
<path d="M39.1923 32.443L35.488 28.7392C35.3778 28.6291 35.2285 28.5673 35.0727 28.5673C34.917 28.5673 34.7676 28.6291 34.6575 28.7392L34.6348 28.7619L33.2093 27.3366C34.174 25.8498 34.7394 24.1396 34.8509 22.3708C34.8606 22.2154 34.8083 22.0624 34.7053 21.9456C34.6024 21.8288 34.4572 21.7577 34.3018 21.7479C33.9784 21.7282 33.6994 21.9734 33.6788 22.2969C33.5386 24.521 32.5912 26.6174 31.0146 28.1923C29.2315 29.9753 26.8898 30.8678 24.5475 30.8701C24.5445 30.87 24.5416 30.8696 24.5386 30.8696H24.492C22.1623 30.8579 19.8362 29.9657 18.0626 28.1923C16.3327 26.4628 15.3801 24.1632 15.3801 21.7172C15.3801 19.2712 16.3327 16.9716 18.0626 15.242C21.6334 11.6716 27.4438 11.6716 31.0146 15.242C32.3446 16.5719 33.2223 18.2493 33.5528 20.0931C33.6101 20.4123 33.9154 20.6243 34.2344 20.5674C34.3103 20.5538 34.3827 20.5254 34.4477 20.4838C34.5126 20.4422 34.5687 20.3882 34.6127 20.3249C34.6568 20.2616 34.6879 20.1903 34.7044 20.115C34.7209 20.0397 34.7224 19.9618 34.7088 19.8859C34.3356 17.8049 33.3454 15.912 31.845 14.4117C31.121 13.6868 30.2929 13.0741 29.388 12.5937V7.86195C29.3873 7.7064 29.3255 7.55735 29.2161 7.4468L21.9403 0.171953C21.8297 0.0625292 21.6806 0.000800514 21.525 0L1.76156 0C0.790313 0 7.8125e-05 0.790078 7.8125e-05 1.76125V6.69586C7.81243e-05 6.77297 0.0152667 6.84932 0.0447766 6.92055C0.0742865 6.99179 0.11754 7.05652 0.172066 7.11104C0.226593 7.16556 0.291324 7.2088 0.362565 7.2383C0.433805 7.2678 0.510159 7.28298 0.587266 7.28297C0.664373 7.28298 0.740726 7.2678 0.811967 7.2383C0.883207 7.2088 0.947939 7.16556 1.00247 7.11104C1.05699 7.05652 1.10024 6.99179 1.12975 6.92055C1.15926 6.84932 1.17445 6.77297 1.17445 6.69586V1.76125C1.17445 1.4375 1.43781 1.17414 1.76164 1.17414H20.938V6.68781C20.938 7.65898 21.7283 8.44906 22.6995 8.44906H28.2139V12.062C27.0683 11.6279 25.8605 11.4049 24.6507 11.3919C24.6449 11.3911 24.6393 11.3899 24.6333 11.3899H11.5239C11.446 11.3887 11.3686 11.4029 11.2963 11.4318C11.2239 11.4608 11.1581 11.5038 11.1025 11.5585C11.047 11.6131 11.0029 11.6783 10.9728 11.7501C10.9426 11.822 10.9271 11.8991 10.9271 11.977C10.9271 12.0549 10.9426 12.1321 10.9728 12.2039C11.0029 12.2758 11.047 12.341 11.1025 12.3956C11.1581 12.4503 11.2239 12.4933 11.2963 12.5222C11.3686 12.5512 11.446 12.5654 11.5239 12.5641H19.7447C18.8889 13.012 18.1005 13.5781 17.4026 14.2458H11.5239C11.446 14.2445 11.3686 14.2588 11.2963 14.2877C11.2239 14.3166 11.1581 14.3597 11.1025 14.4143C11.047 14.469 11.0029 14.5341 10.9728 14.606C10.9426 14.6778 10.9271 14.755 10.9271 14.8329C10.9271 14.9108 10.9426 14.9879 10.9728 15.0598C11.0029 15.1317 11.047 15.1968 11.1025 15.2515C11.1581 15.3061 11.2239 15.3492 11.2963 15.3781C11.3686 15.407 11.446 15.4213 11.5239 15.42H16.3458C15.3873 16.6615 14.7323 18.0913 14.4188 19.6177H11.524C11.4461 19.6164 11.3687 19.6306 11.2964 19.6596C11.224 19.6885 11.1581 19.7315 11.1026 19.7862C11.0471 19.8408 11.0029 19.906 10.9728 19.9778C10.9427 20.0497 10.9272 20.1269 10.9272 20.2048C10.9272 20.2827 10.9427 20.3598 10.9728 20.4317C11.0029 20.5035 11.0471 20.5687 11.1026 20.6233C11.1581 20.678 11.224 20.721 11.2964 20.75C11.3687 20.7789 11.4461 20.7931 11.524 20.7919H14.2473C14.22 21.0996 14.2062 21.4084 14.206 21.7173C14.206 21.9723 14.2153 22.2259 14.2335 22.4777H11.5241C11.4462 22.4765 11.3688 22.4907 11.2964 22.5196C11.2241 22.5486 11.1582 22.5916 11.1027 22.6463C11.0471 22.7009 11.003 22.7661 10.9729 22.8379C10.9428 22.9098 10.9273 22.9869 10.9273 23.0648C10.9273 23.1428 10.9428 23.2199 10.9729 23.2918C11.003 23.3636 11.0471 23.4288 11.1027 23.4834C11.1582 23.5381 11.2241 23.5811 11.2964 23.61C11.3688 23.639 11.4462 23.6532 11.5241 23.652H14.3866C14.686 25.2411 15.3537 26.7302 16.3476 28.0168H11.5241C11.447 28.0168 11.3706 28.032 11.2994 28.0615C11.2282 28.091 11.1634 28.1342 11.1089 28.1888C11.0544 28.2433 11.0111 28.308 10.9816 28.3792C10.9521 28.4505 10.937 28.5268 10.937 28.6039C10.937 28.681 10.9521 28.7574 10.9816 28.8286C11.0111 28.8998 11.0544 28.9645 11.1089 29.0191C11.1634 29.0736 11.2282 29.1168 11.2994 29.1463C11.3706 29.1758 11.447 29.191 11.5241 29.191H17.4049C18.1019 29.8575 18.889 30.4226 19.7433 30.8699H11.5238C11.4458 30.8687 11.3685 30.8829 11.2961 30.9118C11.2238 30.9408 11.1579 30.9838 11.1024 31.0385C11.0468 31.0931 11.0027 31.1583 10.9726 31.2301C10.9425 31.302 10.927 31.3791 10.927 31.457C10.927 31.5349 10.9425 31.6121 10.9726 31.6839C11.0027 31.7558 11.0468 31.821 11.1024 31.8756C11.1579 31.9303 11.2238 31.9733 11.2961 32.0022C11.3685 32.0312 11.4458 32.0454 11.5238 32.0441H24.5386C25.7942 32.0444 27.0394 31.8168 28.2138 31.3726V38.2391C28.2138 38.5627 27.9504 38.8262 27.6266 38.8262H1.76156C1.43781 38.8262 1.17438 38.5628 1.17438 38.2391V9.04453C1.17438 8.72031 0.911484 8.45742 0.587187 8.45742C0.262891 8.45742 0 8.72023 0 9.04453V38.2391C7.8125e-05 39.2099 0.790313 40 1.76156 40H27.6266C28.5979 40 29.3881 39.2099 29.3881 38.2388V30.8405C29.6515 30.7007 29.9087 30.5494 30.159 30.3871L31.5842 31.8121C31.3376 32.0274 31.3244 32.4377 31.5615 32.6651L35.2659 36.369C36.2992 37.4459 38.1589 37.4459 39.1922 36.369C40.2694 35.3357 40.2693 33.4762 39.1923 32.443ZM22.6995 7.27492C22.3757 7.27492 22.1123 7.01156 22.1123 6.68781V2.00445L27.3834 7.27492H22.6995ZM31.1168 29.6842C31.3698 29.4753 31.6128 29.2545 31.845 29.0227C32.0769 28.7906 32.2977 28.5476 32.5066 28.2945L33.8044 29.5921L32.4145 30.9817L31.1168 29.6842ZM38.3619 35.5387C37.7656 36.1602 36.6926 36.16 36.0963 35.5387L32.807 32.2499L35.0727 29.9845L38.362 33.2733C38.9834 33.8696 38.9834 34.9424 38.3619 35.5387Z" fill="black"/>
<path d="M5.32898 16.0004H7.89773C8.62195 16.0004 9.21117 15.4114 9.21117 14.6873V12.1189C9.21117 11.3947 8.62203 10.8057 7.89773 10.8057H5.32898C4.60484 10.8057 4.01562 11.3947 4.01562 12.1189V14.6873C4.01562 15.4114 4.60484 16.0004 5.32898 16.0004ZM5.19 12.1189C5.19 12.0422 5.25242 11.9799 5.32898 11.9799H7.89773C7.97445 11.9799 8.0368 12.0422 8.0368 12.1189V14.6873C8.0368 14.7639 7.97437 14.8263 7.89773 14.8263H5.32898C5.29213 14.8263 5.25679 14.8116 5.23073 14.7856C5.20467 14.7595 5.19002 14.7242 5.19 14.6873V12.1189ZM4.01562 22.9191C4.01562 23.6432 4.60477 24.2322 5.32898 24.2322H7.89773C8.62195 24.2322 9.21117 23.6432 9.21117 22.9191V20.3507C9.21117 19.6266 8.62203 19.0375 7.89773 19.0375H5.32898C4.60484 19.0375 4.01562 19.6266 4.01562 20.3507V22.9191ZM5.19 20.3507C5.19 20.274 5.25242 20.2117 5.32898 20.2117H7.89773C7.97445 20.2117 8.0368 20.274 8.0368 20.3507V22.9191C8.0368 22.9957 7.97437 23.0581 7.89773 23.0581H5.32898C5.29213 23.0581 5.25679 23.0434 5.23073 23.0174C5.20467 22.9913 5.19002 22.956 5.19 22.9191V20.3507ZM4.01562 31.3182C4.01562 32.0422 4.60477 32.6313 5.32898 32.6313H7.89773C8.62195 32.6313 9.21117 32.0422 9.21117 31.3182V28.7497C9.21117 28.0256 8.62203 27.4365 7.89773 27.4365H5.32898C4.60484 27.4365 4.01562 28.0256 4.01562 28.7497V31.3182ZM5.19 28.7497C5.19 28.6731 5.25242 28.6107 5.32898 28.6107H7.89773C7.97445 28.6107 8.0368 28.6731 8.0368 28.7497V31.3182C8.0368 31.3948 7.97437 31.4571 7.89773 31.4571H5.32898C5.29213 31.4571 5.25679 31.4425 5.23073 31.4164C5.20467 31.3904 5.19002 31.355 5.19 31.3182V28.7497Z" fill="black"/>
</svg>
