<svg width="17" height="21" viewBox="0 0 17 21" fill="none" xmlns="http://www.w3.org/2000/svg">
<path fill-rule="evenodd" clip-rule="evenodd" d="M8.77783 2.03128C7.76583 2.02728 6.79783 2.43028 6.08283 3.14828C5.36783 3.86728 4.96583 4.84428 4.96583 5.85928C4.96183 7.41028 5.88783 8.81228 7.31283 9.41028C8.73483 10.0043 10.3758 9.68028 11.4688 8.58228C12.5588 7.48828 12.8868 5.83628 12.2978 4.40228C11.7078 2.96928 10.3168 2.03128 8.77783 2.03128ZM6.74994 0.90633C8.73794 0.0783304 11.0309 0.53933 12.5499 2.07433C14.0739 3.60533 14.5269 5.91433 13.6989 7.91433C12.8749 9.91833 10.9289 11.2233 8.77694 11.2193C5.83994 11.2113 3.46094 8.81633 3.46094 5.85933L3.46894 5.62933C3.55494 3.55233 4.83194 1.70733 6.74994 0.90633ZM6.66841 13.2663C8.10541 13.1453 9.55141 13.1453 10.9884 13.2663C11.7734 13.3213 12.5544 13.4343 13.3204 13.6103C14.9804 13.9463 16.0664 14.6063 16.5194 15.5743C16.8824 16.3753 16.8714 17.3013 16.4924 18.0983C16.0314 19.0673 14.9454 19.7273 13.2574 20.0713C12.4964 20.2423 11.7184 20.3523 10.9334 20.4033C10.0704 20.5003 9.33641 20.5003 8.65241 20.5003H8.38341C7.99641 20.4573 7.70341 20.1293 7.70341 19.7393C7.70341 19.3483 7.99641 19.0203 8.38341 18.9773H8.98041C9.57841 18.9693 10.1834 18.9423 10.7854 18.8913C11.4964 18.8443 12.2034 18.7423 12.9024 18.5903C14.0974 18.3283 14.8514 17.9493 15.0864 17.4463C15.2694 17.0633 15.2694 16.6173 15.0864 16.2353C14.8514 15.7233 14.0974 15.3283 12.9254 15.0903C12.2184 14.9303 11.5004 14.8243 10.7774 14.7813C9.42641 14.6563 8.06641 14.6563 6.71541 14.7813C6.00041 14.8283 5.28941 14.9263 4.59041 15.0783C3.39041 15.3443 2.64841 15.7233 2.40641 16.2233C2.31641 16.4143 2.27341 16.6213 2.27341 16.8323C2.27341 17.0433 2.31641 17.2543 2.40641 17.4463C2.82041 18.0203 3.45341 18.3913 4.15241 18.4773L4.25441 18.5043C4.48441 18.5823 4.66441 18.7703 4.73441 19.0123C4.81641 19.2813 4.73841 19.5783 4.53541 19.7783C4.33241 19.9773 4.03541 20.0433 3.76941 19.9533C2.64041 19.7703 1.65241 19.0943 1.06641 18.1063C0.691406 17.3093 0.691406 16.3793 1.06641 15.5823C1.53141 14.5863 2.61341 13.9463 4.28541 13.6023C5.07041 13.4303 5.86741 13.3213 6.66841 13.2663Z" fill="#222222"/>
</svg>
