<svg width="20" height="21" viewBox="0 0 20 21" fill="none" xmlns="http://www.w3.org/2000/svg">
<path fill-rule="evenodd" clip-rule="evenodd" d="M5.94546 2.16803H3.00914C2.63726 2.16003 2.27332 2.30903 2.00954 2.57803C1.74278 2.84403 1.59106 3.21503 1.59106 3.59803V6.62103C1.58411 7.00803 1.73088 7.38703 1.99863 7.66003C2.26539 7.93803 2.62933 8.08603 3.00914 8.07803H5.94546C6.31734 8.07803 6.67335 7.92203 6.93316 7.64803C7.19695 7.37503 7.33975 7.00403 7.33578 6.62103V3.59803C7.32884 2.80903 6.70905 2.17203 5.94546 2.16803ZM5.94603 0.5C7.6041 0.504 8.94781 1.891 8.95574 3.598V6.621C8.95574 7.441 8.63841 8.227 8.07316 8.809C7.50692 9.387 6.74432 9.711 5.94603 9.707H3.00971C1.35164 9.703 0.0119 8.324 0 6.621V3.598C0.0119 1.891 1.35164 0.512 3.00971 0.5H5.94603ZM16.8232 0.5C18.4694 0.539 19.7903 1.906 19.825 3.598V6.609C19.833 7.43 19.5265 8.219 18.9732 8.805C18.4149 9.391 17.6562 9.727 16.8619 9.738H15.6452C15.2346 9.691 14.9212 9.336 14.9212 8.91C14.9212 8.48 15.2346 8.125 15.6452 8.078H16.8232C17.1951 8.078 17.5511 7.922 17.8149 7.648C18.0737 7.375 18.2175 7.004 18.2136 6.621V3.598C18.2017 2.812 17.5858 2.176 16.8232 2.168H13.8869C13.1194 2.168 12.4956 2.809 12.4956 3.598V8.117L12.4887 8.223C12.4262 8.629 12.0811 8.938 11.6706 8.934C11.4544 8.926 11.2531 8.836 11.1053 8.676C10.9585 8.516 10.8812 8.301 10.8881 8.078V3.598C10.8842 2.777 11.1985 1.988 11.7638 1.406C12.326 0.828 13.0886 0.5 13.8869 0.5H16.8232ZM16.8228 12.949H13.8864C13.1189 12.949 12.4951 13.59 12.4951 14.379V17.402C12.4951 17.781 12.6389 18.148 12.9027 18.418C13.1615 18.684 13.5185 18.836 13.8864 18.832H16.8228C17.1907 18.836 17.5467 18.684 17.8065 18.418C18.0703 18.148 18.2131 17.781 18.2131 17.402V14.379C18.2131 14 18.0663 13.637 17.8065 13.367C17.5427 13.102 17.1907 12.949 16.8228 12.949ZM4.21458 11.293C4.52398 11.258 4.82247 11.406 4.98908 11.68C5.15171 11.949 5.15171 12.293 4.98908 12.563C4.82247 12.832 4.52398 12.984 4.21458 12.949H3.00971C2.23918 12.949 1.61542 13.59 1.61146 14.379V17.363C1.63129 18.148 2.24712 18.781 3.00971 18.793H5.96587C6.33378 18.797 6.68978 18.648 6.95357 18.379C7.21636 18.109 7.36412 17.746 7.36412 17.363V12.883L7.34825 12.77C7.33635 12.477 7.47618 12.188 7.72409 12.027C8.00275 11.844 8.36372 11.856 8.63048 12.055C8.90219 12.254 9.02615 12.602 8.94483 12.93V17.391C8.94483 19.102 7.60013 20.492 5.93413 20.492H3.00971C1.36354 20.457 0.0347083 19.09 0 17.391V14.379C0 13.559 0.317333 12.773 0.883575 12.191C1.44486 11.613 2.21142 11.289 3.00971 11.293H4.21458ZM16.8238 11.293C18.4819 11.297 19.8216 12.676 19.8335 14.379V17.402C19.8216 19.109 18.4819 20.488 16.8238 20.5H13.8875C12.2334 20.488 10.8926 19.105 10.8887 17.402V14.379C10.8887 12.676 12.2294 11.293 13.8875 11.293H16.8238Z" fill="#222222"/>
</svg>
