<svg width="20" height="19" viewBox="0 0 20 19" fill="none" xmlns="http://www.w3.org/2000/svg">
<path fill-rule="evenodd" clip-rule="evenodd" d="M15.5261 8.67105C15.8738 8.67105 16.1551 8.96 16.1551 9.31905C16.1551 9.67432 15.8738 9.96232 15.5261 9.96232H15.2371C14.8894 9.96232 14.6043 9.67432 14.6043 9.31905C14.6043 8.96 14.8894 8.67105 15.2371 8.67105H15.5261ZM13.9942 0.5C17.0172 0.5 19.4747 3.01621 19.4747 6.10653V12.8935C19.4747 15.9838 17.0172 18.5 13.9942 18.5C13.6465 18.5 13.3613 18.2111 13.3613 17.852C13.3613 17.4967 13.6465 17.2087 13.9942 17.2087C16.3181 17.2087 18.2128 15.2733 18.2128 12.8935V7.47547H15.1007C14.0794 7.47926 13.2467 8.33095 13.2467 9.374C13.2467 10.4218 14.0794 11.2725 15.1007 11.2725H16.392C16.7434 11.2725 17.0248 11.5653 17.0248 11.9205C17.0248 12.2758 16.7434 12.5676 16.392 12.5676H15.1007C13.3831 12.5638 11.9848 11.1361 11.981 9.374C11.9848 7.61663 13.3831 6.18421 15.1007 6.18421H18.2128V6.10653C18.2128 3.72674 16.3181 1.79126 13.9942 1.79126H6.00787C4.13208 1.79126 2.55945 3.05695 2.01092 4.78874H10.3373C10.686 4.78874 10.9673 5.07768 10.9673 5.43674C10.9673 5.792 10.686 6.08095 10.3373 6.08095H1.79303L1.78924 6.10653V12.8935C1.78924 15.2733 3.68019 17.2087 6.00787 17.2087H10.0266C10.3752 17.2087 10.6557 17.4967 10.6557 17.852C10.6557 18.2111 10.3752 18.5 10.0266 18.5H6.00787C2.98482 18.5 0.527344 15.9838 0.527344 12.8935V6.10653C0.527344 3.01621 2.98482 0.5 6.00787 0.5H13.9942Z" fill="#222222"/>
<path d="M18.2128 7.47547H18.3128V7.37547H18.2128V7.47547ZM15.1007 7.47547V7.37547L15.1003 7.37547L15.1007 7.47547ZM15.1007 12.5676L15.1005 12.6676H15.1007V12.5676ZM11.981 9.374L11.881 9.37378L11.881 9.37421L11.981 9.374ZM18.2128 6.18421V6.28421H18.3128V6.18421H18.2128ZM2.01092 4.78874L1.91559 4.75854L1.87435 4.88874H2.01092V4.78874ZM1.79303 6.08095V5.98095H1.70675L1.69411 6.06629L1.79303 6.08095ZM1.78924 6.10653L1.69032 6.09187L1.68924 6.09916V6.10653H1.78924ZM15.5261 8.77105C15.8158 8.77105 16.0551 9.0125 16.0551 9.31905H16.2551C16.2551 8.9075 15.9317 8.57105 15.5261 8.57105V8.77105ZM16.0551 9.31905C16.0551 9.62123 15.8164 9.86232 15.5261 9.86232V10.0623C15.9311 10.0623 16.2551 9.7274 16.2551 9.31905H16.0551ZM15.5261 9.86232H15.2371V10.0623H15.5261V9.86232ZM15.2371 9.86232C14.946 9.86232 14.7043 9.62045 14.7043 9.31905H14.5043C14.5043 9.72819 14.8329 10.0623 15.2371 10.0623V9.86232ZM14.7043 9.31905C14.7043 9.01329 14.9466 8.77105 15.2371 8.77105V8.57105C14.8323 8.57105 14.5043 8.90671 14.5043 9.31905H14.7043ZM15.2371 8.77105H15.5261V8.57105H15.2371V8.77105ZM13.9942 0.6C16.9599 0.6 19.3747 3.06926 19.3747 6.10653H19.5747C19.5747 2.96316 17.0746 0.4 13.9942 0.4V0.6ZM19.3747 6.10653V12.8935H19.5747V6.10653H19.3747ZM19.3747 12.8935C19.3747 15.9307 16.9599 18.4 13.9942 18.4V18.6C17.0746 18.6 19.5747 16.0368 19.5747 12.8935H19.3747ZM13.9942 18.4C13.7036 18.4 13.4613 18.1578 13.4613 17.852H13.2613C13.2613 18.2643 13.5894 18.6 13.9942 18.6V18.4ZM13.4613 17.852C13.4613 17.5506 13.7031 17.3087 13.9942 17.3087V17.1087C13.5899 17.1087 13.2613 17.4429 13.2613 17.852H13.4613ZM13.9942 17.3087C16.3754 17.3087 18.3128 15.3264 18.3128 12.8935H18.1128C18.1128 15.2201 16.2608 17.1087 13.9942 17.1087V17.3087ZM18.3128 12.8935V7.47547H18.1128V12.8935H18.3128ZM18.2128 7.37547H15.1007V7.57547H18.2128V7.37547ZM15.1003 7.37547C14.0222 7.37948 13.1467 8.27772 13.1467 9.374H13.3467C13.3467 8.38417 14.1367 7.57905 15.1011 7.57547L15.1003 7.37547ZM13.1467 9.374C13.1467 10.4748 14.0221 11.3725 15.1007 11.3725V11.1725C14.1368 11.1725 13.3467 10.3687 13.3467 9.374H13.1467ZM15.1007 11.3725H16.392V11.1725H15.1007V11.3725ZM16.392 11.3725C16.6855 11.3725 16.9248 11.6178 16.9248 11.9205H17.1248C17.1248 11.5128 16.8014 11.1725 16.392 11.1725V11.3725ZM16.9248 11.9205C16.9248 12.2231 16.6857 12.4676 16.392 12.4676V12.6676C16.8012 12.6676 17.1248 12.3285 17.1248 11.9205H16.9248ZM16.392 12.4676H15.1007V12.6676H16.392V12.4676ZM15.1009 12.4676C13.4405 12.4639 12.0847 11.083 12.081 9.37379L11.881 9.37421C11.8849 11.1892 13.3257 12.6637 15.1005 12.6676L15.1009 12.4676ZM12.081 9.37422C12.0847 7.66963 13.4406 6.28421 15.1007 6.28421V6.08421C13.3257 6.08421 11.8849 7.56364 11.881 9.37378L12.081 9.37422ZM15.1007 6.28421H18.2128V6.08421H15.1007V6.28421ZM18.3128 6.18421V6.10653H18.1128V6.18421H18.3128ZM18.3128 6.10653C18.3128 3.67361 16.3754 1.69126 13.9942 1.69126V1.89126C16.2608 1.89126 18.1128 3.77986 18.1128 6.10653H18.3128ZM13.9942 1.69126H6.00787V1.89126H13.9942V1.69126ZM6.00787 1.69126C4.08502 1.69126 2.4762 2.98859 1.91559 4.75854L2.10625 4.81893C2.64269 3.1253 4.17914 1.89126 6.00787 1.89126V1.69126ZM2.01092 4.88874H10.3373V4.68874H2.01092V4.88874ZM10.3373 4.88874C10.6282 4.88874 10.8673 5.13029 10.8673 5.43674H11.0673C11.0673 5.02508 10.7438 4.68874 10.3373 4.68874V4.88874ZM10.8673 5.43674C10.8673 5.73901 10.6285 5.98095 10.3373 5.98095V6.18095C10.7434 6.18095 11.0673 5.84499 11.0673 5.43674H10.8673ZM10.3373 5.98095H1.79303V6.18095H10.3373V5.98095ZM1.69411 6.06629L1.69032 6.09187L1.88816 6.12118L1.89195 6.0956L1.69411 6.06629ZM1.68924 6.10653V12.8935H1.88924V6.10653H1.68924ZM1.68924 12.8935C1.68924 15.3263 3.62282 17.3087 6.00787 17.3087V17.1087C3.73756 17.1087 1.88924 15.2202 1.88924 12.8935H1.68924ZM6.00787 17.3087H10.0266V17.1087H6.00787V17.3087ZM10.0266 17.3087C10.3178 17.3087 10.5557 17.5497 10.5557 17.852H10.7557C10.7557 17.4438 10.4327 17.1087 10.0266 17.1087V17.3087ZM10.5557 17.852C10.5557 18.1586 10.3172 18.4 10.0266 18.4V18.6C10.4333 18.6 10.7557 18.2635 10.7557 17.852H10.5557ZM10.0266 18.4H6.00787V18.6H10.0266V18.4ZM6.00787 18.4C3.0422 18.4 0.627344 15.9307 0.627344 12.8935H0.427344C0.427344 16.0368 2.92743 18.6 6.00787 18.6V18.4ZM0.627344 12.8935V6.10653H0.427344V12.8935H0.627344ZM0.627344 6.10653C0.627344 3.06926 3.0422 0.6 6.00787 0.6V0.4C2.92743 0.4 0.427344 2.96316 0.427344 6.10653H0.627344ZM6.00787 0.6H13.9942V0.4H6.00787V0.6Z" fill="#222222"/>
</svg>
