<svg width="22" height="23" viewBox="0 0 22 23" fill="none" xmlns="http://www.w3.org/2000/svg">
<path fill-rule="evenodd" clip-rule="evenodd" d="M8.93705 6.97192L9.48224 7.51711C9.61665 7.65152 9.7923 7.71855 9.9683 7.71855C10.1443 7.71855 10.32 7.65152 10.4544 7.51711C10.7228 7.24864 10.7228 6.81346 10.4544 6.54499L9.90918 5.9998L13.7496 2.15942L14.6626 3.07242C14.2892 3.63377 14.0919 4.29446 14.0933 4.96855C14.0933 6.86467 15.6347 8.40605 17.5308 8.40605C18.2049 8.40742 18.8656 8.21011 19.4269 7.8368L20.3399 8.7498L16.4996 12.5902L15.9544 12.045C15.7811 11.8662 15.5261 11.7951 15.2858 11.857C15.0455 11.9202 14.8575 12.1079 14.7942 12.3485C14.7323 12.5888 14.8035 12.8439 14.9822 13.0171L15.5274 13.5623L8.24955 20.8402L7.33655 19.9272C7.70987 19.3658 7.90718 18.7051 7.9058 18.031C7.9058 16.1349 6.36443 14.5935 4.4683 14.5935C3.79421 14.5922 3.13352 14.7895 2.57218 15.1628L1.65918 14.2498L8.93705 6.97192ZM0.201438 14.736L2.03844 16.573C2.30691 16.8414 2.74209 16.8414 3.01056 16.573C3.39591 16.1849 3.92081 15.9673 4.46875 15.9687C5.60622 15.9687 6.53125 16.8937 6.53125 18.0312C6.53263 18.5791 6.31503 19.104 5.92694 19.4894C5.65847 19.7578 5.65847 20.193 5.92694 20.4615L7.76394 22.2985C7.89834 22.4329 8.074 22.4999 8.25 22.4999C8.426 22.4999 8.60166 22.4329 8.73606 22.2985L21.7986 9.23598C21.9275 9.10707 22 8.93245 22 8.74991C22 8.56738 21.9275 8.39276 21.7986 8.26385L19.9616 6.42685C19.6931 6.15838 19.2579 6.15838 18.9894 6.42685C18.6041 6.81495 18.0792 7.03254 17.5312 7.03116C16.3938 7.03116 15.4688 6.10613 15.4688 4.96866C15.4688 4.41798 15.6836 3.89995 16.0731 3.51048C16.3415 3.24201 16.3415 2.80682 16.0731 2.53835L14.2361 0.701352C13.9676 0.432883 13.5324 0.432883 13.2639 0.701352L0.201438 13.7639C0.0725313 13.8928 0 14.0674 0 14.2499C0 14.4324 0.0725313 14.6071 0.201438 14.736Z" fill="#222222"/>
<path fill-rule="evenodd" clip-rule="evenodd" d="M12.9209 10.9545L13.6084 11.642C13.7428 11.7764 13.9184 11.8435 14.0944 11.8435C14.2704 11.8435 14.4461 11.7764 14.5805 11.642C14.849 11.3736 14.849 10.9384 14.5805 10.6699L13.893 9.98241C13.7198 9.80366 13.4647 9.7325 13.2244 9.79438C12.9841 9.85763 12.7961 10.0457 12.7329 10.2859C12.671 10.5262 12.7421 10.7813 12.9209 10.9545ZM11.5459 9.57953C11.6803 9.71394 11.8559 9.78097 12.0319 9.78097C12.2079 9.78097 12.3839 9.71394 12.518 9.57953C12.7865 9.31106 12.7865 8.87588 12.518 8.60741L11.8305 7.91991C11.6573 7.74116 11.4022 7.67 11.1619 7.73188C10.9216 7.79513 10.7336 7.98316 10.6704 8.22344C10.6085 8.46372 10.6796 8.71878 10.8584 8.89203L11.5459 9.57953Z" fill="#222222"/>
</svg>
